<svg xmlns="http://www.w3.org/2000/svg" xmlns:xlink="http://www.w3.org/1999/xlink" version="1.1" width="256" height="256" viewBox="0 0 256 256" xml:space="preserve">

<defs>
</defs>
<g style="stroke: none; stroke-width: 0; stroke-dasharray: none; stroke-linecap: butt; stroke-linejoin: miter; stroke-miterlimit: 10; fill: none; fill-rule: nonzero; opacity: 1;" transform="translate(1.4065934065934016 1.4065934065934016) scale(2.81 2.81)" >
	<rect width="100%" height="100%" fill="white" />
	<path d="M 72.4 0 h -2 H 54.8 h -2 H 37.2 h -2 H 19.6 h -2 H 0 v 17.6 v 2 v 15.6 v 2 v 15.6 v 2 V 70.4 v 2 V 90 h 17.6 h 2 h 15.6 h 2 h 15.6 h 2 H 70.4 h 2 H 90 V 72.4 v -2 V 54.8 v -2 V 37.2 v -2 V 19.6 v -2 V 0 H 72.4 z M 54.8 2 H 70.4 v 15.6 H 54.8 V 2 z M 70.4 35.2 H 54.8 V 19.6 H 70.4 V 35.2 z M 70.4 52.8 H 54.8 V 37.2 H 70.4 V 52.8 z M 70.4 70.4 H 54.8 V 54.8 H 70.4 V 70.4 z M 19.6 54.8 h 15.6 V 70.4 H 19.6 V 54.8 z M 19.6 37.2 h 15.6 v 15.6 H 19.6 V 37.2 z M 19.6 19.6 h 15.6 v 15.6 H 19.6 V 19.6 z M 52.8 35.2 H 37.2 V 19.6 h 15.6 V 35.2 z M 52.8 52.8 H 37.2 V 37.2 h 15.6 V 52.8 z M 37.2 54.8 h 15.6 V 70.4 H 37.2 V 54.8 z M 37.2 2 h 15.6 v 15.6 H 37.2 V 2 z M 19.6 2 h 15.6 v 15.6 H 19.6 V 2 z M 2 2 h 15.6 v 15.6 H 2 V 2 z M 2 19.6 h 15.6 v 15.6 H 2 V 19.6 z M 2 37.2 h 15.6 v 15.6 H 2 V 37.2 z M 2 54.8 h 15.6 V 70.4 H 2 V 54.8 z M 17.6 88 H 2 V 72.4 h 15.6 V 88 z M 35.2 88 H 19.6 V 72.4 h 15.6 V 88 z M 52.8 88 H 37.2 V 72.4 h 15.6 V 88 z M 70.4 88 H 54.8 V 72.4 H 70.4 V 88 z M 88 88 H 72.4 V 72.4 H 88 V 88 z M 88 70.4 H 72.4 V 54.8 H 88 V 70.4 z M 88 52.8 H 72.4 V 37.2 H 88 V 52.8 z M 88 35.2 H 72.4 V 19.6 H 88 V 35.2 z M 72.4 17.6 V 2 H 88 v 15.6 H 72.4 z" style="stroke: none; stroke-width: 1; stroke-dasharray: none; stroke-linecap: butt; stroke-linejoin: miter; stroke-miterlimit: 10; fill: rgb(0,0,0); fill-rule: nonzero; opacity: 1;" transform=" matrix(1 0 0 1 0 0) " stroke-linecap="round" />
</g>
</svg>